<?xml version="1.0" encoding="utf-8"?><svg xmlns="http://www.w3.org/2000/svg" xmlns:xlink="http://www.w3.org/1999/xlink"  preserveAspectRatio="xMidYMid" viewBox="0 0 1536 722" style="z-index:1;margin-right:-1.6px;display:block;background-repeat-y:initial;background-repeat-x:initial;background-color:rgb(255, 255, 255);animation-play-state:paused" ><g transform="translate(768,361) scale(1,1) translate(-768,-361)" style="transform:matrix(1, 0, 0, 1, 0, 0);animation-play-state:paused" ><linearGradient id="lg-0.14750266214570074" x1="0" x2="1" y1="0" y2="0" style="animation-play-state:paused" ><stop stop-color="#ff00ff" offset="0" style="animation-play-state:paused" ></stop>

  
<stop stop-color="#00ffff" offset="1" style="animation-play-state:paused" ></stop></linearGradient>
<path d="M 0 0 L 0 681.555 Q 153.6 693.369 307.2 653.564 T 614.4 509.773 T 921.6 440.212 T 1228.8 422.701 T 1536 321.557 L 1536 0 Z" fill="url(#lg-0.14750266214570074)" opacity="0.1" style="opacity:0.1;animation-play-state:paused" ></path>
<path d="M 0 0 L 0 625.437 Q 153.6 642.589 307.2 613.359 T 614.4 496.305 T 921.6 457.102 T 1228.8 335.626 T 1536 293.214 L 1536 0 Z" fill="url(#lg-0.14750266214570074)" opacity="0.1" style="opacity:0.1;animation-play-state:paused" ></path>
<path d="M 0 0 L 0 672.278 Q 153.6 669.829 307.2 622.607 T 614.4 494.792 T 921.6 490.153 T 1228.8 404.738 T 1536 364.447 L 1536 0 Z" fill="url(#lg-0.14750266214570074)" opacity="0.1" style="opacity:0.1;animation-play-state:paused" ></path>
<path d="M 0 0 L 0 719.699 Q 153.6 657.407 307.2 628.875 T 614.4 471.017 T 921.6 438.689 T 1228.8 365.066 T 1536 332.7 L 1536 0 Z" fill="url(#lg-0.14750266214570074)" opacity="0.1" style="opacity:0.1;animation-play-state:paused" ></path>
<path d="M 0 0 L 0 598.118 Q 153.6 652.165 307.2 617.878 T 614.4 555.29 T 921.6 487.972 T 1228.8 405.998 T 1536 383.395 L 1536 0 Z" fill="url(#lg-0.14750266214570074)" opacity="0.1" style="opacity:0.1;animation-play-state:paused" ></path></g></svg>